<?xml version="1.0" standalone="no"?>
<!DOCTYPE svg PUBLIC "-//W3C//DTD SVG 20010904//EN"
 "http://www.w3.org/TR/2001/REC-SVG-20010904/DTD/svg10.dtd">
<svg version="1.0" xmlns="http://www.w3.org/2000/svg"
 width="700.000000pt" height="700.000000pt" viewBox="0 0 700.000000 700.000000"
 preserveAspectRatio="xMidYMid meet">
<metadata>
Created by potrace 1.14, written by Peter Selinger 2001-2017
</metadata>
<g transform="translate(0.000000,700.000000) scale(0.100000,-0.100000)"
fill="#000000" stroke="none">
<path d="M1610 3571 l0 -2530 335 0 335 0 0 1193 0 1193 1315 0 1315 0 0
-1194 0 -1194 335 2 335 1 0 51 c1 29 1 1166 1 2527 l0 2475 -336 3 -335 2 0
-1039 0 -1039 -1315 0 -1315 -1 0 1040 0 1039 -335 0 -335 0 0 -2529z"/>
</g>
</svg>
